<?xml version="1.0" encoding="UTF-8"?>
<!DOCTYPE svg PUBLIC "-//W3C//DTD SVG 1.1//EN" "http://www.w3.org/Graphics/SVG/1.1/DTD/svg11.dtd">
<svg xmlns="http://www.w3.org/2000/svg" version="1.1" width="500px" height="500px" style="shape-rendering:geometricPrecision; text-rendering:geometricPrecision; image-rendering:optimizeQuality; fill-rule:evenodd; clip-rule:evenodd" xmlns:xlink="http://www.w3.org/1999/xlink">
<g><path style="opacity:1" fill="#fefefe" d="M -0.5,-0.5 C 60.8333,-0.5 122.167,-0.5 183.5,-0.5C 183.5,29.5 183.5,59.5 183.5,89.5C 155.165,89.3334 126.831,89.5 98.5,90C 112.512,103.879 126.178,118.045 139.5,132.5C 132.949,139.762 126.283,146.929 119.5,154C 126,160.5 132.5,167 139,173.5C 139.667,174.5 139.667,175.5 139,176.5C 125.137,190.029 111.637,203.862 98.5,218C 123.831,218.5 149.164,218.667 174.5,218.5C 141.064,253.437 107.064,287.937 72.5,322C 131.751,380.75 190.417,439.917 248.5,499.5C 165.5,499.5 82.5,499.5 -0.5,499.5C -0.5,332.833 -0.5,166.167 -0.5,-0.5 Z"/></g>
<g><path style="opacity:1" fill="#fffdfb" d="M 183.5,-0.5 C 226.5,-0.5 269.5,-0.5 312.5,-0.5C 312.5,-0.166667 312.5,0.166667 312.5,0.5C 297.857,13.9747 283.357,27.6414 269,41.5C 262.028,35.3632 255.195,29.0299 248.5,22.5C 242.014,28.4852 235.681,34.6519 229.5,41C 228.5,41.6667 227.5,41.6667 226.5,41C 212.971,27.1373 199.138,13.6373 185,0.5C 184.832,30.3362 184.332,60.0028 183.5,89.5C 183.5,59.5 183.5,29.5 183.5,-0.5 Z"/></g>
<g><path style="opacity:1" fill="#fefefe" d="M 313.5,-0.5 C 375.5,-0.5 437.5,-0.5 499.5,-0.5C 499.5,166.167 499.5,332.833 499.5,499.5C 416.5,499.5 333.5,499.5 250.5,499.5C 309.339,440.495 368.005,381.328 426.5,322C 392.005,286.672 357.339,251.505 322.5,216.5C 348.502,216.667 374.502,216.5 400.5,216C 399.956,215.283 399.289,214.783 398.5,214.5C 384.823,200.823 371.49,186.823 358.5,172.5C 365.03,165.805 371.363,158.972 377.5,152C 371.363,145.028 365.03,138.195 358.5,131.5C 371.851,116.817 385.518,102.484 399.5,88.5C 400.043,88.44 400.376,88.1067 400.5,87.5C 371.508,86.5002 342.508,86.1668 313.5,86.5C 313.5,57.5 313.5,28.5 313.5,-0.5 Z"/></g>
<g><path style="opacity:1" fill="#febd36" d="M 312.5,0.5 C 312.5,29.5 312.5,58.5 312.5,87.5C 341.671,87.1686 370.671,87.502 399.5,88.5C 385.518,102.484 371.851,116.817 358.5,131.5C 365.03,138.195 371.363,145.028 377.5,152C 371.363,158.972 365.03,165.805 358.5,172.5C 371.49,186.823 384.823,200.823 398.5,214.5C 373.005,215.498 347.339,215.831 321.5,215.5C 317.833,212.5 314.5,209.167 311.5,205.5C 332.177,205.833 352.844,205.5 373.5,204.5C 373.376,203.893 373.043,203.56 372.5,203.5C 357.673,188.506 343.006,173.339 328.5,158C 314.837,157.5 301.171,157.333 287.5,157.5C 288.114,153.865 288.448,150.198 288.5,146.5C 301.758,145.685 315.092,145.185 328.5,145C 343.862,129.971 358.862,114.638 373.5,99C 351.833,98.3333 330.167,98.3333 308.5,99C 300.298,107.369 291.965,115.536 283.5,123.5C 282.833,123.5 282.5,123.167 282.5,122.5C 280.445,120.445 278.779,118.112 277.5,115.5C 285.131,107.368 292.964,99.3684 301,91.5C 301.667,69.8333 301.667,48.1667 301,26.5C 285.971,41.8625 270.638,56.8625 255,71.5C 254.5,82.8284 254.333,94.1618 254.5,105.5C 250.5,105.5 246.5,105.5 242.5,105.5C 242.667,94.1618 242.5,82.8284 242,71.5C 226.474,56.7293 211.141,41.7293 196,26.5C 195.333,48.1667 195.333,69.8333 196,91.5C 204.368,100.036 212.868,108.369 221.5,116.5C 218.914,119.358 216.58,122.358 214.5,125.5C 206.035,117.536 197.702,109.369 189.5,101C 167.833,100.333 146.167,100.333 124.5,101C 140.196,116.362 155.529,132.029 170.5,148C 183.829,148.5 197.163,148.667 210.5,148.5C 210.87,152.233 211.537,155.899 212.5,159.5C 198.496,159.333 184.496,159.5 170.5,160C 155.267,174.731 140.6,189.898 126.5,205.5C 125.711,205.783 125.044,206.283 124.5,207C 144.831,207.5 165.164,207.667 185.5,207.5C 185.5,207.833 185.5,208.167 185.5,208.5C 181.833,211.833 178.167,215.167 174.5,218.5C 149.164,218.667 123.831,218.5 98.5,218C 111.637,203.862 125.137,190.029 139,176.5C 139.667,175.5 139.667,174.5 139,173.5C 132.5,167 126,160.5 119.5,154C 126.283,146.929 132.949,139.762 139.5,132.5C 126.178,118.045 112.512,103.879 98.5,90C 126.831,89.5 155.165,89.3334 183.5,89.5C 184.332,60.0028 184.832,30.3362 185,0.5C 199.138,13.6373 212.971,27.1373 226.5,41C 227.5,41.6667 228.5,41.6667 229.5,41C 235.681,34.6519 242.014,28.4852 248.5,22.5C 255.195,29.0299 262.028,35.3632 269,41.5C 283.357,27.6414 297.857,13.9747 312.5,0.5 Z"/></g>
<g><path style="opacity:1" fill="#fefefd" d="M 242.5,105.5 C 234.212,106.81 227.212,110.476 221.5,116.5C 212.868,108.369 204.368,100.036 196,91.5C 195.333,69.8333 195.333,48.1667 196,26.5C 211.141,41.7293 226.474,56.7293 242,71.5C 242.5,82.8284 242.667,94.1618 242.5,105.5 Z"/></g>
<g><path style="opacity:1" fill="#fefefd" d="M 277.5,115.5 C 276.833,115.5 276.167,115.5 275.5,115.5C 269.985,109.244 262.985,105.911 254.5,105.5C 254.333,94.1618 254.5,82.8284 255,71.5C 270.638,56.8625 285.971,41.8625 301,26.5C 301.667,48.1667 301.667,69.8333 301,91.5C 292.964,99.3684 285.131,107.368 277.5,115.5 Z"/></g>
<g><path style="opacity:1" fill="#fffefe" d="M 247.5,38.5 C 252.239,41.7308 256.572,45.5642 260.5,50C 256.652,54.0156 252.652,57.8489 248.5,61.5C 244.348,57.8489 240.348,54.0156 236.5,50C 240.37,46.2977 244.037,42.4643 247.5,38.5 Z"/></g>
<g><path style="opacity:1" fill="#ffe9bc" d="M 312.5,-0.5 C 312.833,-0.5 313.167,-0.5 313.5,-0.5C 313.5,28.5 313.5,57.5 313.5,86.5C 342.508,86.1668 371.508,86.5002 400.5,87.5C 400.376,88.1067 400.043,88.44 399.5,88.5C 370.671,87.502 341.671,87.1686 312.5,87.5C 312.5,58.5 312.5,29.5 312.5,0.5C 312.5,0.166667 312.5,-0.166667 312.5,-0.5 Z"/></g>
<g><path style="opacity:1" fill="#fefefd" d="M 288.5,146.5 C 288.666,142.486 288.499,138.486 288,134.5C 286.487,130.812 284.987,127.145 283.5,123.5C 291.965,115.536 300.298,107.369 308.5,99C 330.167,98.3333 351.833,98.3333 373.5,99C 358.862,114.638 343.862,129.971 328.5,145C 315.092,145.185 301.758,145.685 288.5,146.5 Z"/></g>
<g><path style="opacity:1" fill="#fefefd" d="M 214.5,125.5 C 211.041,132.747 209.707,140.413 210.5,148.5C 197.163,148.667 183.829,148.5 170.5,148C 155.529,132.029 140.196,116.362 124.5,101C 146.167,100.333 167.833,100.333 189.5,101C 197.702,109.369 206.035,117.536 214.5,125.5 Z"/></g>
<g><path style="opacity:1" fill="#febc33" d="M 254.5,106.5 C 254.5,108.833 254.5,111.167 254.5,113.5C 260.717,114.692 266.217,117.359 271,121.5C 272.707,119.963 274.207,118.296 275.5,116.5C 277.5,118.833 279.5,121.167 281.5,123.5C 281.833,124.167 282.167,124.833 282.5,125.5C 280.521,126.812 278.855,128.479 277.5,130.5C 279.881,135.211 280.881,140.211 280.5,145.5C 282.833,145.5 285.167,145.5 287.5,145.5C 287.416,149.837 286.416,153.837 284.5,157.5C 282.076,157.192 279.743,157.526 277.5,158.5C 275.86,161.468 273.86,164.135 271.5,166.5C 268.129,169.854 264.129,172.187 259.5,173.5C 258.609,174.11 257.609,174.443 256.5,174.5C 251.819,175.762 247.152,175.762 242.5,174.5C 241.5,174.5 240.5,174.5 239.5,174.5C 235.193,172.343 231.193,169.676 227.5,166.5C 227.167,166.5 226.833,166.5 226.5,166.5C 225.419,164.236 224.085,162.069 222.5,160C 220.19,159.503 217.857,159.337 215.5,159.5C 213.432,156.237 212.432,152.57 212.5,148.5C 214.5,148.5 216.5,148.5 218.5,148.5C 218.119,143.183 218.786,138.017 220.5,133C 219.35,130.684 217.683,128.85 215.5,127.5C 217.12,123.918 219.453,120.918 222.5,118.5C 224.129,119.625 225.629,120.959 227,122.5C 231.291,118.105 236.458,115.438 242.5,114.5C 242.5,112.167 242.5,109.833 242.5,107.5C 246.4,106.57 250.4,106.237 254.5,106.5 Z"/></g>
<g><path style="opacity:1" fill="#434a4d" d="M 242.5,105.5 C 246.5,105.5 250.5,105.5 254.5,105.5C 262.985,105.911 269.985,109.244 275.5,115.5C 269.112,111.141 262.112,108.141 254.5,106.5C 250.4,106.237 246.4,106.57 242.5,107.5C 234.361,108.568 227.694,112.235 222.5,118.5C 219.453,120.918 217.12,123.918 215.5,127.5C 212.002,134.283 211.002,141.283 212.5,148.5C 212.432,152.57 213.432,156.237 215.5,159.5C 216.394,162.957 218.06,165.957 220.5,168.5C 219.833,168.5 219.5,168.833 219.5,169.5C 216.674,166.516 214.341,163.183 212.5,159.5C 211.537,155.899 210.87,152.233 210.5,148.5C 209.707,140.413 211.041,132.747 214.5,125.5C 216.58,122.358 218.914,119.358 221.5,116.5C 227.212,110.476 234.212,106.81 242.5,105.5 Z"/></g>
<g><path style="opacity:1" fill="#fbf9f6" d="M 242.5,107.5 C 242.5,109.833 242.5,112.167 242.5,114.5C 236.458,115.438 231.291,118.105 227,122.5C 225.629,120.959 224.129,119.625 222.5,118.5C 227.694,112.235 234.361,108.568 242.5,107.5 Z"/></g>
<g><path style="opacity:1" fill="#fcfaf7" d="M 254.5,106.5 C 262.112,108.141 269.112,111.141 275.5,115.5C 275.5,115.833 275.5,116.167 275.5,116.5C 274.207,118.296 272.707,119.963 271,121.5C 266.217,117.359 260.717,114.692 254.5,113.5C 254.5,111.167 254.5,108.833 254.5,106.5 Z"/></g>
<g><path style="opacity:1" fill="#675a3a" d="M 275.5,116.5 C 275.5,116.167 275.5,115.833 275.5,115.5C 276.167,115.5 276.833,115.5 277.5,115.5C 278.779,118.112 280.445,120.445 282.5,122.5C 281.833,122.5 281.5,122.833 281.5,123.5C 279.5,121.167 277.5,118.833 275.5,116.5 Z"/></g>
<g><path style="opacity:1" fill="#fcfaf7" d="M 282.5,125.5 C 285.727,131.742 287.394,138.409 287.5,145.5C 285.167,145.5 282.833,145.5 280.5,145.5C 280.881,140.211 279.881,135.211 277.5,130.5C 278.855,128.479 280.521,126.812 282.5,125.5 Z"/></g>
<g><path style="opacity:1" fill="#f6f5f3" d="M 215.5,127.5 C 217.683,128.85 219.35,130.684 220.5,133C 218.786,138.017 218.119,143.183 218.5,148.5C 216.5,148.5 214.5,148.5 212.5,148.5C 211.002,141.283 212.002,134.283 215.5,127.5 Z"/></g>
<g><path style="opacity:1" fill="#fffdfa" d="M 349.5,139.5 C 353.964,143.463 358.298,147.63 362.5,152C 358.652,156.016 354.652,159.849 350.5,163.5C 346.167,159.833 342.167,155.833 338.5,151.5C 342.189,147.48 345.855,143.48 349.5,139.5 Z"/></g>
<g><path style="opacity:1" fill="#fffcf8" d="M 146.5,141.5 C 150.964,145.463 155.298,149.63 159.5,154C 155.622,158.214 151.455,162.048 147,165.5C 142.5,162.333 138.667,158.5 135.5,154C 138.99,149.677 142.657,145.51 146.5,141.5 Z"/></g>
<g><path style="opacity:1" fill="#f9f8f6" d="M 284.5,157.5 C 283.097,162.134 280.764,166.301 277.5,170C 276.833,170.667 276.167,170.667 275.5,170C 274.295,168.624 272.962,167.458 271.5,166.5C 273.86,164.135 275.86,161.468 277.5,158.5C 279.743,157.526 282.076,157.192 284.5,157.5 Z"/></g>
<g><path style="opacity:1" fill="#fefefe" d="M 287.5,157.5 C 301.171,157.333 314.837,157.5 328.5,158C 343.006,173.339 357.673,188.506 372.5,203.5C 352.007,204.497 331.34,204.831 310.5,204.5C 299.368,193.869 288.368,183.035 277.5,172C 281.72,167.709 285.053,162.876 287.5,157.5 Z"/></g>
<g><path style="opacity:1" fill="#fefefe" d="M 212.5,159.5 C 214.341,163.183 216.674,166.516 219.5,169.5C 219.833,170.167 220.167,170.833 220.5,171.5C 209.167,183.5 197.5,195.167 185.5,206.5C 165.66,206.83 145.993,206.497 126.5,205.5C 140.6,189.898 155.267,174.731 170.5,160C 184.496,159.5 198.496,159.333 212.5,159.5 Z"/></g>
<g><path style="opacity:1" fill="#faf9f6" d="M 215.5,159.5 C 217.857,159.337 220.19,159.503 222.5,160C 224.085,162.069 225.419,164.236 226.5,166.5C 224.833,167.5 223.5,168.833 222.5,170.5C 221.5,170.167 220.833,169.5 220.5,168.5C 218.06,165.957 216.394,162.957 215.5,159.5 Z"/></g>
<g><path style="opacity:1" fill="#a3833a" d="M 226.5,166.5 C 226.833,166.5 227.167,166.5 227.5,166.5C 226.145,168.929 224.478,170.262 222.5,170.5C 223.5,168.833 224.833,167.5 226.5,166.5 Z"/></g>
<g><path style="opacity:1" fill="#25323b" d="M 282.5,122.5 C 282.5,123.167 282.833,123.5 283.5,123.5C 284.987,127.145 286.487,130.812 288,134.5C 288.499,138.486 288.666,142.486 288.5,146.5C 288.448,150.198 288.114,153.865 287.5,157.5C 285.053,162.876 281.72,167.709 277.5,172C 288.368,183.035 299.368,193.869 310.5,204.5C 310.5,205.167 310.833,205.5 311.5,205.5C 314.5,209.167 317.833,212.5 321.5,215.5C 321.5,216.167 321.833,216.5 322.5,216.5C 357.339,251.505 392.005,286.672 426.5,322C 368.005,381.328 309.339,440.495 250.5,499.5C 249.833,499.5 249.167,499.5 248.5,499.5C 190.417,439.917 131.751,380.75 72.5,322C 107.064,287.937 141.064,253.437 174.5,218.5C 178.167,215.167 181.833,211.833 185.5,208.5C 197.465,197.035 209.298,185.369 221,173.5C 221.692,172.563 221.525,171.897 220.5,171.5C 220.167,170.833 219.833,170.167 219.5,169.5C 219.5,168.833 219.833,168.5 220.5,168.5C 220.833,169.5 221.5,170.167 222.5,170.5C 224.478,170.262 226.145,168.929 227.5,166.5C 231.193,169.676 235.193,172.343 239.5,174.5C 232.895,178.849 233.895,181.182 242.5,181.5C 242.5,179.167 242.5,176.833 242.5,174.5C 247.152,175.762 251.819,175.762 256.5,174.5C 256.5,176.833 256.5,179.167 256.5,181.5C 259.311,181.174 261.978,180.341 264.5,179C 262.627,177.296 260.96,175.463 259.5,173.5C 264.129,172.187 268.129,169.854 271.5,166.5C 272.962,167.458 274.295,168.624 275.5,170C 276.167,170.667 276.833,170.667 277.5,170C 280.764,166.301 283.097,162.134 284.5,157.5C 286.416,153.837 287.416,149.837 287.5,145.5C 287.394,138.409 285.727,131.742 282.5,125.5C 282.167,124.833 281.833,124.167 281.5,123.5C 281.5,122.833 281.833,122.5 282.5,122.5 Z"/></g>
<g><path style="opacity:1" fill="#f3f4f4" d="M 239.5,174.5 C 240.5,174.5 241.5,174.5 242.5,174.5C 242.5,176.833 242.5,179.167 242.5,181.5C 233.895,181.182 232.895,178.849 239.5,174.5 Z"/></g>
<g><path style="opacity:1" fill="#f7f7f6" d="M 259.5,173.5 C 260.96,175.463 262.627,177.296 264.5,179C 261.978,180.341 259.311,181.174 256.5,181.5C 256.5,179.167 256.5,176.833 256.5,174.5C 257.609,174.443 258.609,174.11 259.5,173.5 Z"/></g>
<g><path style="opacity:1" fill="#fefefe" d="M 301.5,216.5 C 301.83,236.674 301.497,256.674 300.5,276.5C 285.86,262.194 271.193,247.861 256.5,233.5C 256.5,216.5 256.5,199.5 256.5,182.5C 259.965,182.273 263.299,181.773 266.5,181C 278.369,192.702 290.035,204.535 301.5,216.5 Z"/></g>
<g><path style="opacity:1" fill="#fefefe" d="M 242.5,183.5 C 242.5,199.5 242.5,215.5 242.5,231.5C 227.14,246.527 211.807,261.527 196.5,276.5C 195.503,257.341 195.17,238.007 195.5,218.5C 207.631,205.868 219.965,193.368 232.5,181C 235.716,181.897 239.049,182.731 242.5,183.5 Z"/></g>
<g><path style="opacity:1" fill="#a7863b" d="M 220.5,171.5 C 221.525,171.897 221.692,172.563 221,173.5C 209.298,185.369 197.465,197.035 185.5,208.5C 185.5,208.167 185.5,207.833 185.5,207.5C 185.5,207.167 185.5,206.833 185.5,206.5C 197.5,195.167 209.167,183.5 220.5,171.5 Z"/></g>
<g><path style="opacity:1" fill="#fede98" d="M 372.5,203.5 C 373.043,203.56 373.376,203.893 373.5,204.5C 352.844,205.5 332.177,205.833 311.5,205.5C 310.833,205.5 310.5,205.167 310.5,204.5C 331.34,204.831 352.007,204.497 372.5,203.5 Z"/></g>
<g><path style="opacity:1" fill="#ffedcb" d="M 126.5,205.5 C 145.993,206.497 165.66,206.83 185.5,206.5C 185.5,206.833 185.5,207.167 185.5,207.5C 165.164,207.667 144.831,207.5 124.5,207C 125.044,206.283 125.711,205.783 126.5,205.5 Z"/></g>
<g><path style="opacity:1" fill="#fecd65" d="M 398.5,214.5 C 399.289,214.783 399.956,215.283 400.5,216C 374.502,216.5 348.502,216.667 322.5,216.5C 321.833,216.5 321.5,216.167 321.5,215.5C 347.339,215.831 373.005,215.498 398.5,214.5 Z"/></g>
<g><path style="opacity:1" fill="#ffd378" d="M 301.5,216.5 C 302.167,216.5 302.5,216.833 302.5,217.5C 302.833,237.511 302.5,257.511 301.5,277.5C 300.893,277.376 300.56,277.043 300.5,276.5C 301.497,256.674 301.83,236.674 301.5,216.5 Z"/></g>
<g><path style="opacity:1" fill="#febd35" d="M 302.5,217.5 C 306.167,220.5 309.5,223.833 312.5,227.5C 312.5,246.167 312.5,264.833 312.5,283.5C 309.5,287.167 306.167,290.5 302.5,293.5C 291.505,282.672 280.339,272.006 269,261.5C 264.964,265.704 260.798,269.704 256.5,273.5C 256.5,268.167 256.5,262.833 256.5,257.5C 261.833,254.833 261.833,252.167 256.5,249.5C 256.5,244.167 256.5,238.833 256.5,233.5C 271.193,247.861 285.86,262.194 300.5,276.5C 300.56,277.043 300.893,277.376 301.5,277.5C 302.5,257.511 302.833,237.511 302.5,217.5 Z"/></g>
<g><path style="opacity:1" fill="#fed47a" d="M 195.5,218.5 C 195.17,238.007 195.503,257.341 196.5,276.5C 196.44,277.043 196.107,277.376 195.5,277.5C 194.5,258.178 194.167,238.845 194.5,219.5C 194.5,218.833 194.833,218.5 195.5,218.5 Z"/></g>
<g><path style="opacity:1" fill="#febd35" d="M 194.5,219.5 C 194.167,238.845 194.5,258.178 195.5,277.5C 196.107,277.376 196.44,277.043 196.5,276.5C 211.807,261.527 227.14,246.527 242.5,231.5C 242.5,236.833 242.5,242.167 242.5,247.5C 240.188,249.146 238.188,251.146 236.5,253.5C 238.188,255.854 240.188,257.854 242.5,259.5C 242.5,264.833 242.5,270.167 242.5,275.5C 237.535,271.037 232.702,266.37 228,261.5C 216.995,271.672 206.161,282.006 195.5,292.5C 191.5,289.167 187.833,285.5 184.5,281.5C 184.5,264.167 184.5,246.833 184.5,229.5C 187.5,225.833 190.833,222.5 194.5,219.5 Z"/></g>
<g><path style="opacity:1" fill="#fffcf8" d="M 312.5,227.5 C 322.146,236.479 331.479,245.812 340.5,255.5C 331.479,265.188 322.146,274.521 312.5,283.5C 312.5,264.833 312.5,246.167 312.5,227.5 Z"/></g>
<g><path style="opacity:1" fill="#fdfbf7" d="M 184.5,229.5 C 184.5,246.833 184.5,264.167 184.5,281.5C 175.521,273.188 166.854,264.521 158.5,255.5C 166.854,246.479 175.521,237.812 184.5,229.5 Z"/></g>
<g><path style="opacity:1" fill="#fffaf0" d="M 242.5,247.5 C 242.5,251.5 242.5,255.5 242.5,259.5C 240.188,257.854 238.188,255.854 236.5,253.5C 238.188,251.146 240.188,249.146 242.5,247.5 Z"/></g>
<g><path style="opacity:1" fill="#f9f4e8" d="M 256.5,249.5 C 261.833,252.167 261.833,254.833 256.5,257.5C 256.5,254.833 256.5,252.167 256.5,249.5 Z"/></g>
<g><path style="opacity:1" fill="#fefefd" d="M 242.5,275.5 C 242.831,297.007 242.497,318.34 241.5,339.5C 226.167,323.833 210.833,308.167 195.5,292.5C 206.161,282.006 216.995,271.672 228,261.5C 232.702,266.37 237.535,271.037 242.5,275.5 Z"/></g>
<g><path style="opacity:1" fill="#fdfdfd" d="M 302.5,293.5 C 288.204,309.63 273.037,324.963 257,339.5C 256.5,317.503 256.333,295.503 256.5,273.5C 260.798,269.704 264.964,265.704 269,261.5C 280.339,272.006 291.505,282.672 302.5,293.5 Z"/></g>
<g><path style="opacity:1" fill="#7e858b" d="M 156.5,273.5 C 155.167,279.833 155.167,286.167 156.5,292.5C 156.44,293.043 156.107,293.376 155.5,293.5C 154.167,286.5 154.167,279.5 155.5,272.5C 156.107,272.624 156.44,272.957 156.5,273.5 Z"/></g>
<g><path style="opacity:1" fill="#f8f8f9" d="M 156.5,273.5 C 159.478,276.813 162.478,280.147 165.5,283.5C 162.812,286.854 159.812,289.854 156.5,292.5C 155.167,286.167 155.167,279.833 156.5,273.5 Z"/></g>
<g><path style="opacity:1" fill="#858d91" d="M 359.5,273.5 C 358.167,279.167 358.167,284.833 359.5,290.5C 359.44,291.043 359.107,291.376 358.5,291.5C 357.167,285.167 357.167,278.833 358.5,272.5C 359.107,272.624 359.44,272.957 359.5,273.5 Z"/></g>
<g><path style="opacity:1" fill="#fefefe" d="M 359.5,273.5 C 361.962,276.464 364.629,279.297 367.5,282C 364.629,284.703 361.962,287.536 359.5,290.5C 358.167,284.833 358.167,279.167 359.5,273.5 Z"/></g>
<g><path style="opacity:1" fill="#f3f3f4" d="M 140.5,272.5 C 141.654,278.987 141.821,285.654 141,292.5C 137.651,289.318 134.484,285.985 131.5,282.5C 134.522,279.147 137.522,275.813 140.5,272.5 Z"/></g>
<g><path style="opacity:1" fill="#eff0f1" d="M 343.5,272.5 C 344.653,278.653 344.82,284.986 344,291.5C 340.833,288.333 337.667,285.167 334.5,282C 337.704,278.964 340.704,275.797 343.5,272.5 Z"/></g>
<g><path style="opacity:1" fill="#595e5d" d="M 242.5,183.5 C 243.831,235.668 243.831,288.002 242.5,340.5C 241.893,340.376 241.56,340.043 241.5,339.5C 242.497,318.34 242.831,297.007 242.5,275.5C 242.5,270.167 242.5,264.833 242.5,259.5C 242.5,255.5 242.5,251.5 242.5,247.5C 242.5,242.167 242.5,236.833 242.5,231.5C 242.5,215.5 242.5,199.5 242.5,183.5 Z"/></g>
<g><path style="opacity:1" fill="#f9f9fa" d="M 323.5,292.5 C 330.425,298.085 337.092,304.085 343.5,310.5C 344.665,317.811 344.831,325.144 344,332.5C 334.333,322.833 324.667,313.167 315,303.5C 314.333,302.833 314.333,302.167 315,301.5C 318.038,298.631 320.871,295.631 323.5,292.5 Z"/></g>
<g><path style="opacity:1" fill="#fbfbfb" d="M 120.5,292.5 C 127.465,298.964 134.298,305.631 141,312.5C 141.667,319.5 141.667,326.5 141,333.5C 130.833,323.333 120.667,313.167 110.5,303C 114.037,299.631 117.371,296.131 120.5,292.5 Z"/></g>
<g><path style="opacity:1" fill="#fdfdfd" d="M 376.5,292.5 C 380.75,295.079 384.417,298.412 387.5,302.5C 378.181,312.319 368.681,321.986 359,331.5C 358.333,324.5 358.333,317.5 359,310.5C 365.036,304.631 370.87,298.631 376.5,292.5 Z"/></g>
<g><path style="opacity:1" fill="#fdfdfd" d="M 156.5,333.5 C 155.509,327.021 155.176,320.354 155.5,313.5C 161.812,306.521 168.479,299.854 175.5,293.5C 179.167,296.5 182.5,299.833 185.5,303.5C 175.812,313.521 166.145,323.521 156.5,333.5 Z"/></g>
<g><path style="opacity:1" fill="#7d848a" d="M 155.5,313.5 C 155.176,320.354 155.509,327.021 156.5,333.5C 156.44,334.043 156.107,334.376 155.5,334.5C 154.181,327.344 154.181,320.344 155.5,313.5 Z"/></g>
<g><path style="opacity:1" fill="#f6f6f7" d="M 303.5,312.5 C 317.414,324.911 330.914,337.911 344,351.5C 344.667,358.167 344.667,364.833 344,371.5C 327.5,355 311,338.5 294.5,322C 297.704,318.964 300.704,315.797 303.5,312.5 Z"/></g>
<g><path style="opacity:1" fill="#fdfdfd" d="M 397.5,312.5 C 400.964,315.462 404.297,318.629 407.5,322C 391.333,338.167 375.167,354.333 359,370.5C 358.333,364.167 358.333,357.833 359,351.5C 372.035,338.632 384.869,325.632 397.5,312.5 Z"/></g>
<g><path style="opacity:1" fill="#fbfbfb" d="M 99.5,313.5 C 113.748,326.245 127.581,339.578 141,353.5C 141.667,359.5 141.667,365.5 141,371.5C 124.5,355 108,338.5 91.5,322C 94.3714,319.297 97.0381,316.464 99.5,313.5 Z"/></g>
<g><path style="opacity:1" fill="#fcfdfd" d="M 195.5,313.5 C 198.631,316.129 201.631,318.962 204.5,322C 188.333,338.167 172.167,354.333 156,370.5C 155.333,364.833 155.333,359.167 156,353.5C 169.369,340.299 182.535,326.965 195.5,313.5 Z"/></g>
<g><path style="opacity:1" fill="#fefefe" d="M 213.5,332.5 C 222.579,340.074 231.245,348.241 239.5,357C 221.167,375.333 202.833,393.667 184.5,412C 183.5,412.667 182.5,412.667 181.5,412C 173.652,404.319 165.985,396.486 158.5,388.5C 176.855,369.813 195.188,351.146 213.5,332.5 Z"/></g>
<g><path style="opacity:1" fill="#fcfcfc" d="M 284.5,331.5 C 303.132,349.632 321.632,367.965 340,386.5C 340.667,387.5 340.667,388.5 340,389.5C 332,397.5 324,405.5 316,413.5C 297.167,394.667 278.333,375.833 259.5,357C 268.036,348.632 276.369,340.132 284.5,331.5 Z"/></g>
<g><path style="opacity:1" fill="#fbfbfb" d="M 241.5,374.5 C 242.655,381.655 242.822,388.988 242,396.5C 238.318,392.985 234.818,389.318 231.5,385.5C 234.855,381.813 238.189,378.147 241.5,374.5 Z"/></g>
<g><path style="opacity:1" fill="#fcfcfc" d="M 256.5,374.5 C 260.631,378.13 264.631,381.963 268.5,386C 264.667,389.833 260.833,393.667 257,397.5C 256.5,389.841 256.334,382.174 256.5,374.5 Z"/></g>
<g><path style="opacity:1" fill="#fdfdfd" d="M 220.5,395.5 C 227.798,402.297 234.965,409.297 242,416.5C 242.667,423.5 242.667,430.5 242,437.5C 231.5,427 221,416.5 210.5,406C 214.037,402.631 217.371,399.131 220.5,395.5 Z"/></g>
<g><path style="opacity:1" fill="#fdfdfd" d="M 277.5,396.5 C 281.75,399.079 285.417,402.412 288.5,406.5C 278.181,417.319 267.681,427.986 257,438.5C 256.333,431.5 256.333,424.5 257,417.5C 264.036,410.632 270.869,403.632 277.5,396.5 Z"/></g>
<g><path style="opacity:1" fill="#f4f5f5" d="M 199.5,416.5 C 200.552,416.351 201.552,416.517 202.5,417C 215.667,430.167 228.833,443.333 242,456.5C 242.667,461.833 242.667,467.167 242,472.5C 226,456.5 210,440.5 194,424.5C 193.333,423.833 193.333,423.167 194,422.5C 196.04,420.63 197.873,418.63 199.5,416.5 Z"/></g>
<g><path style="opacity:1" fill="#f7f8f8" d="M 297.5,416.5 C 301.304,418.131 303.804,420.798 305,424.5C 289,440.5 273,456.5 257,472.5C 256.333,467.5 256.333,462.5 257,457.5C 270.702,443.965 284.202,430.299 297.5,416.5 Z"/></g>
</svg>
